<mxfile host="app.diagrams.net" modified="2023-05-03T12:15:04.847Z" agent="Mozilla/5.0 (Windows NT 10.0; Win64; x64) AppleWebKit/537.36 (KHTML, like Gecko) Chrome/112.0.0.0 Safari/537.36" version="21.2.4" etag="m8HsMigV-XaXBdebDkuw" type="github">
  <diagram name="Page-1" id="C_eqJZkW0mEMROfbGPr8">
    <mxGraphModel>
      <root>
        <mxCell id="0" />
        <mxCell id="1" parent="0" />
      </root>
    </mxGraphModel>
  </diagram>
</mxfile>
